<svg width="27" height="27" viewBox="0 0 27 27" fill="none" xmlns="http://www.w3.org/2000/svg">
    <rect x="1" y="9.56546" width="6.00003" height="14.0501" rx="1" stroke="#333333" stroke-width="2"/>
    <path d="M7 21.2913V11.2503C7 10.9096 7.17583 10.5953 7.45327 10.3974C9.38802 9.01773 10.4633 7.21973 11.814 3.11734C12.0063 2.53345 12.6776 2.23938 13.1917 2.57644C15.2981 3.95747 15.7136 5.76475 13.6028 8.8561C13.1069 9.58238 13.6219 10.5866 14.4964 10.4943C18.1782 10.1059 22.7925 9.59467 22.9951 12.1844C22.9993 12.238 22.9968 12.2951 22.9902 12.3484C22.1743 19.0259 20.4082 22.9228 18.0001 23.4067C11.7404 24.3089 9.00137 24.4643 7.16185 21.8258C7.05297 21.6696 7 21.4817 7 21.2913Z"
          stroke="#333333" stroke-width="2"/>
</svg>
