<svg width="40" height="40" viewBox="0 0 40 40" fill="none" xmlns="http://www.w3.org/2000/svg">
<path d="M28.4399 22.7344C28.1294 22.7344 27.7815 22.7849 27.3784 22.8941C24.9563 23.9414 22.4412 24.4718 19.9026 24.4718C15.5907 24.4718 12.6668 22.9176 12.6378 22.9022C12.6243 22.8948 12.6101 22.8898 12.5958 22.8852C12.2691 22.7976 11.8937 22.7444 11.5662 22.7367V22.739C11.5539 22.7367 11.5415 22.7351 11.5292 22.7351C11.5261 22.7351 11.4937 22.7344 11.4902 22.7344C11.4721 22.7344 11.4544 22.7375 11.437 22.7425C10.8403 22.7706 10.3789 22.9963 10.0657 23.4129C9.25638 24.4884 9.75129 26.4587 9.77598 26.5544C11.6345 32.2635 17.7443 32.7071 19.5728 32.7071C19.832 32.7071 19.9882 32.6982 19.9898 32.6967C20.0121 32.6982 20.168 32.7071 20.4276 32.7071C22.256 32.7071 28.3659 32.2635 30.2283 26.5428C30.2503 26.4584 30.754 24.4598 29.9239 23.3874C29.5883 22.9535 29.0892 22.7344 28.4399 22.7344ZM28.4068 26.1721C26.9143 30.6761 21.91 31.0264 20.4114 31.0264C20.2108 31.0264 20.0935 31.019 20.0901 31.019C20.0611 31.0167 20.0311 31.0156 20.001 31.0156C19.9713 31.0156 19.9419 31.0167 19.9153 31.0187C19.8984 31.0194 19.7815 31.0264 19.589 31.0264C18.0907 31.0264 13.0868 30.6761 11.5994 26.1887C11.4571 25.5951 11.4412 24.7121 11.6333 24.4656C11.6592 24.4324 11.7637 24.4181 11.844 24.4166C11.9697 24.4189 12.1799 24.437 12.369 24.4795C13.1617 24.8702 15.9499 26.0869 19.9057 26.0869C22.5234 26.0869 25.114 25.5476 27.5774 24.4918C27.7849 24.4409 27.967 24.4151 28.1186 24.4151C28.2201 24.4151 28.3377 24.4278 28.3667 24.4648C28.5599 24.7125 28.5441 25.5943 28.4068 26.1721ZM12.3667 14.4613C12.3667 13.1405 13.4379 12.0692 14.7587 12.0692C16.0791 12.0692 17.1503 13.1405 17.1503 14.4613C17.1503 15.7828 16.0791 16.854 14.7587 16.854C13.4379 16.854 12.3667 15.7824 12.3667 14.4613ZM23.2127 14.4613C23.2127 13.1405 24.2851 12.0692 25.6055 12.0692C26.9263 12.0692 27.9975 13.1405 27.9975 14.4613C27.9975 15.7828 26.9263 16.854 25.6055 16.854C24.2851 16.854 23.2127 15.7824 23.2127 14.4613ZM32.9686 40H7.03216C3.15464 40 0 36.8457 0 32.9678V7.03216C0 3.15425 3.15464 0 7.03216 0H32.9678C36.8457 0 40 3.15464 40 7.03216V32.9678C40.0004 36.8457 36.8457 40 32.9686 40ZM7.03216 3.30855C4.9796 3.30855 3.30932 4.97883 3.30932 7.03178V32.9671C3.30932 35.02 4.9796 36.6903 7.03216 36.6903H32.9678C35.0204 36.6903 36.6907 35.02 36.6907 32.9671V7.03216C36.6907 4.97922 35.0204 3.30893 32.9678 3.30893L7.03216 3.30855Z" fill="#333333"/>
</svg>
