<svg width="40" height="40" viewBox="0 0 40 40" fill="none" xmlns="http://www.w3.org/2000/svg">
<path d="M28.8675 27.1953C29.1213 27.782 28.8513 28.4632 28.2649 28.7166C27.6782 28.9712 26.9974 28.7004 26.7436 28.1141C25.6272 25.5339 22.9899 23.8663 20.0235 23.8663C16.9885 23.8663 14.335 25.5319 13.2642 28.111C13.0794 28.5562 12.6485 28.8246 12.1953 28.8246C12.0471 28.8246 11.8971 28.7961 11.7517 28.7363C11.1615 28.491 10.8818 27.8136 11.1268 27.2238C12.5579 23.7784 16.0504 21.5522 20.0235 21.5522C23.9137 21.5522 27.3854 23.7672 28.8675 27.1953ZM11.9812 13.5666C11.9812 12.2462 13.0524 11.1746 14.3732 11.1746C15.6936 11.1746 16.7648 12.2458 16.7648 13.5666C16.7648 14.8881 15.6936 15.9593 14.3732 15.9593C13.052 15.9593 11.9812 14.8885 11.9812 13.5666ZM22.8267 13.5666C22.8267 12.2462 23.8991 11.1746 25.2195 11.1746C26.5403 11.1746 27.6115 12.2458 27.6115 13.5666C27.6115 14.8881 26.5403 15.9593 25.2195 15.9593C23.8995 15.9593 22.8267 14.8885 22.8267 13.5666ZM32.9683 40H7.03209C3.15499 40 0 36.8454 0 32.9683V7.03209C0 3.15461 3.15499 0 7.03209 0H32.9675C36.8454 0 39.9996 3.15461 39.9996 7.03209V32.9675C40.0004 36.8454 36.8454 40 32.9683 40ZM7.03209 3.30929C4.97956 3.30929 3.30929 4.97956 3.30929 7.03209V32.9675C3.30929 35.0201 4.97956 36.6903 7.03209 36.6903H32.9675C35.0201 36.6903 36.6903 35.0201 36.6903 32.9675V7.03209C36.6903 4.97956 35.0201 3.30929 32.9675 3.30929H7.03209Z" fill="#333333"/>
</svg>
