<svg width="40" height="40" viewBox="0 0 40 40" fill="none" xmlns="http://www.w3.org/2000/svg">
<path d="M7.64111 14.09V13.9323C7.64111 12.0637 8.9538 10.5489 10.5728 10.5489H15.5805C16.8908 10.5489 18.0002 11.5418 18.3756 12.9116H21.6251C22.0004 11.5422 23.1098 10.5489 24.4202 10.5489H29.4275C31.0461 10.5489 32.3595 12.0633 32.3595 13.9323V14.09C32.3595 15.9586 31.0468 17.4734 29.4275 17.4734H24.4202C22.8274 17.4734 21.5352 16.0076 21.4924 14.1818H18.5079C18.4654 16.0076 17.1724 17.4734 15.5801 17.4734H10.5728C8.95341 17.473 7.64111 15.9586 7.64111 14.09ZM28.6869 23.8084C27.2041 27.2358 23.7324 29.4507 19.8425 29.4507C15.869 29.4507 12.3769 27.2246 10.9458 23.7791C10.7004 23.1893 10.9801 22.512 11.5703 22.267C11.7157 22.2068 11.8662 22.1783 12.0139 22.1783C12.4675 22.1783 12.898 22.4464 13.0828 22.8919C14.154 25.471 16.8075 27.1366 19.8425 27.1366C22.8085 27.1366 25.4466 25.4695 26.5626 22.8896C26.816 22.3029 27.4976 22.0321 28.0839 22.2863C28.6707 22.5405 28.9399 23.2213 28.6869 23.8084Z" fill="#333333"/>
<path d="M32.9683 40H7.03209C3.15499 40 0 36.8454 0 32.9683V7.03209C0 3.15461 3.15499 0 7.03209 0H32.9675C36.8454 0 39.9996 3.15461 39.9996 7.03209V32.9675C40.0004 36.8454 36.8454 40 32.9683 40ZM7.03209 3.30929C4.97956 3.30929 3.30929 4.97956 3.30929 7.03209V32.9675C3.30929 35.0201 4.97956 36.6903 7.03209 36.6903H32.9675C35.0201 36.6903 36.6903 35.0201 36.6903 32.9675V7.03209C36.6903 4.97956 35.0201 3.30929 32.9675 3.30929H7.03209Z" fill="#333333"/>
</svg>
