<svg width="40" height="40" viewBox="0 0 40 40" fill="none" xmlns="http://www.w3.org/2000/svg">
    <path d="M29.2528 28.0893C29.5059 28.676 29.2362 29.3573 28.6499 29.6111C28.0636 29.8649 27.3824 29.5945 27.1285 29.0081C26.0122 26.4283 23.3756 24.7599 20.4089 24.7599C17.3735 24.7599 14.72 26.4263 13.6495 29.0054C13.4644 29.4498 13.0339 29.7191 12.5806 29.7199C12.4321 29.7199 12.2824 29.6913 12.137 29.6311C11.5464 29.3854 11.2668 28.708 11.5125 28.1182C12.9432 24.6724 16.4361 22.4466 20.4093 22.4466C24.2991 22.4462 27.7708 24.6616 29.2528 28.0893ZM10.9752 14.0736C10.7144 13.6199 10.871 13.0413 11.3246 12.7809L14.8137 10.7766C15.2673 10.5166 15.8459 10.6732 16.1067 11.1265C16.3675 11.5801 16.2108 12.1587 15.7572 12.4191L12.2682 14.4227C11.8138 14.6834 11.2351 14.5272 10.9752 14.0736ZM16.3891 14.1145C17.0402 14.766 17.0402 15.8229 16.3891 16.4733C15.7379 17.1245 14.6818 17.1245 14.0295 16.4725C13.3783 15.8214 13.3783 14.7652 14.0295 14.1145C14.681 13.4629 15.7372 13.4629 16.3891 14.1145ZM22.0599 8.45055C22.1065 7.92979 22.566 7.5452 23.0867 7.59188L27.095 7.95217C27.6157 7.99884 28.0007 8.45865 27.9533 8.9798C27.9066 9.50094 27.4472 9.88514 26.9256 9.83808L22.9181 9.47818C22.3974 9.43151 22.0124 8.97092 22.0599 8.45055ZM26.3385 14.0871C26.9897 14.7382 26.9897 15.7944 26.3385 16.4452C25.6862 17.0971 24.6297 17.0971 23.9789 16.4459C23.3278 15.7952 23.3278 14.7386 23.9789 14.0871C24.6305 13.4352 25.6866 13.4352 26.3385 14.0871ZM32.9675 40H7.03209C3.15461 40 0 36.8457 0 32.9678V7.03216C0 3.15425 3.15499 0 7.03209 0H32.9675C36.8454 0 39.9992 3.15464 39.9992 7.03216V32.9678C40 36.8457 36.8454 40 32.9675 40ZM7.03209 3.30855C4.97917 3.30855 3.3089 4.97883 3.3089 7.03178V32.9671C3.3089 35.02 4.97917 36.6903 7.03209 36.6903H32.9675C35.0201 36.6903 36.6903 35.02 36.6903 32.9671V7.03216C36.6903 4.97922 35.0201 3.30893 32.9675 3.30893L7.03209 3.30855Z"
          fill="#333333"/>
</svg>
