<svg width="40" height="40" viewBox="0 0 40 40" fill="none" xmlns="http://www.w3.org/2000/svg">
<path d="M22.2481 15.6183C22.2481 13.7679 23.754 12.262 25.6052 12.262C27.4556 12.262 28.9616 13.7676 28.9616 15.6183C28.9616 16.1511 28.5299 16.5827 27.9972 16.5827C27.4645 16.5827 27.0329 16.1511 27.0329 15.6183C27.0329 14.831 26.3925 14.1907 25.6052 14.1907C24.8179 14.1907 24.1768 14.831 24.1768 15.6183C24.1768 16.1511 23.7452 16.5827 23.2125 16.5827C22.6798 16.5827 22.2481 16.1507 22.2481 15.6183ZM11.5545 15.6079C11.5545 13.7575 13.0605 12.2516 14.9117 12.2516C16.7621 12.2516 18.268 13.7571 18.268 15.6079C18.268 16.1406 17.8364 16.5723 17.3037 16.5723C16.7709 16.5723 16.3393 16.1406 16.3393 15.6079C16.3393 14.8206 15.699 14.1803 14.9117 14.1803C14.124 14.1803 13.4833 14.8206 13.4833 15.6079C13.4833 16.1406 13.0516 16.5723 12.5189 16.5723C11.9862 16.5723 11.5545 16.1406 11.5545 15.6079ZM11.1268 24.2293C10.8814 23.6395 11.1611 22.9621 11.7517 22.7172C11.8967 22.657 12.0471 22.6285 12.1953 22.6285C12.6489 22.6285 13.0794 22.8965 13.2642 23.3421C14.3354 25.9212 16.9885 27.5868 20.0235 27.5868C22.9895 27.5868 25.6272 25.92 26.7436 23.3398C26.9974 22.753 27.6786 22.4823 28.2649 22.7365C28.8513 22.9907 29.1213 23.6715 28.8675 24.2582C27.385 27.6863 23.9134 29.9012 20.0231 29.9012C16.0496 29.9012 12.5579 27.6751 11.1268 24.2293ZM32.9683 40H7.03209C3.15499 40 0 36.8454 0 32.9683V7.03209C0 3.15461 3.15499 0 7.03209 0H32.9675C36.8454 0 39.9996 3.15461 39.9996 7.03209V32.9675C40.0004 36.8454 36.8454 40 32.9683 40ZM7.03209 3.30929C4.97956 3.30929 3.30929 4.97956 3.30929 7.03209V32.9675C3.30929 35.0201 4.97956 36.6903 7.03209 36.6903H32.9675C35.0201 36.6903 36.6903 35.0201 36.6903 32.9675V7.03209C36.6903 4.97956 35.0201 3.30929 32.9675 3.30929H7.03209Z" fill="#333333"/>
</svg>
