<svg width="40" height="39" viewBox="0 0 40 39" fill="none" xmlns="http://www.w3.org/2000/svg">
    <path d="M15.0048 17.7223C17.2528 17.3485 18.4806 18.9709 19.3485 20.9285C19.5306 21.3394 20.1221 21.3524 20.3093 20.9438C21.1737 19.0574 22.2282 17.394 24.6163 17.7223C27.6342 18.2568 28.5043 20.436 27.7258 23.3657C26.7826 25.9828 25.2096 26.6478 23.4854 28.0078L20.085 30.3026C19.9186 30.4149 19.7012 30.4168 19.5329 30.3074L15.9941 28.0078L15.9891 28.0039C13.3608 25.9677 12.0358 24.9413 11.7373 23.3657C11.2769 20.594 12.06 18.2777 15.0048 17.7223Z"
          stroke="#FFF6FF" stroke-width="3"/>
    <path d="M2 17.6683L19.4488 2L37.7879 17.6683" stroke="#FFF6FF" stroke-width="3" stroke-linecap="round"
          stroke-linejoin="round"/>
    <path d="M26.9272 8.40977V5.38293H31.3785V12.1488" stroke="#FFF6FF" stroke-width="3" stroke-linecap="round"
          stroke-linejoin="round"/>
    <path d="M3.42432 37.2537H35.2951" stroke="#FFF6FF" stroke-width="3" stroke-linecap="round"
          stroke-linejoin="round"/>
    <path d="M6.27344 14.4634V36.7196" stroke="#FFF6FF" stroke-width="3" stroke-linecap="round"
          stroke-linejoin="round"/>
    <path d="M32.8022 14.2854V36.8976" stroke="#FFF6FF" stroke-width="3" stroke-linecap="round"
          stroke-linejoin="round"/>
</svg>